Title:
Dias de Gracia Aka Days Of Grace

Country:
Mexico/2011

Language:
Spanish

Subtitle:
Swedish, Danish

Director:
Everardo Valerio Gout

Writers:
Everardo Valerio Gout, David Rutsala (additional writing)

Stars:
Dolores Heredia, Paulina Gaitan, Carlos Bardem

Synopsis:
Mexico City. 2002, 2006, 2010. A cop. A hostage. A wife. Corruption, violence, vengeance. Three destinies, during 30 days, during three Soccer World Cups. Three ways to fight in order to survive. 

Trivia:
Win 13 Ariel Awards and Official Selection Cannes Film Festival 2011

Imdb: 
http://www.imdb.com/title/tt1450320

Trailer: 
http://www.movieplayer.it/video/dias-de-gracia-trailer_7922/

Media Info:

General
Complete name                            : Days.Of.Grace.[Dias.de.Gracia].2011.DVDRip.XviD.HORiZON-ArtSubs
Format                                   : AVI
Format/Info                              : Audio Video Interleave
Format profile                           : OpenDML
File size                                : 1.62 GiB
Duration                                 : 2h 6mn
Overall bit rate                         : 1 842 Kbps
Writing application                      : Lavf52.94.0

Video
ID                                       : 0
Format                                   : MPEG-4 Visual
Format profile                           : Simple@L3
Format settings, BVOP                    : No
Format settings, QPel                    : No
Format settings, GMC                     : No warppoints
Format settings, Matrix                  : Default (H.263)
Codec ID                                 : XVID
Codec ID/Hint                            : XviD
Duration                                 : 2h 6mn
Bit rate                                 : 1 572 Kbps
Width                                    : 1 024 pixels
Height                                   : 576 pixels
Display aspect ratio                     : 16:9
Frame rate                               : 25.000 fps
Color space                              : YUV
Chroma subsampling                       : 4:2:0
Bit depth                                : 8 bits
Scan type                                : Progressive
Compression mode                         : Lossy
Bits/(Pixel*Frame)                       : 0.107
Stream size                              : 1.38 GiB (85%)
Writing library                          : XviD 1.2.1 (UTC 2008-12-04)

Audio
ID                                       : 1
Format                                   : MPEG Audio
Format version                           : Version 1
Format profile                           : Layer 3
Mode                                     : Joint stereo
Mode extension                           : MS Stereo
Codec ID                                 : 55
Codec ID/Hint                            : MP3
Duration                                 : 2h 6mn
Bit rate mode                            : Constant
Bit rate                                 : 256 Kbps
Channel(s)                               : 2 channels
Sampling rate                            : 48.0 KHz
Compression mode                         : Lossy
Stream size                              : 231 MiB (14%)
Alignment                                : Aligned on interleaves
Interleave, duration                     : 24 ms (0.60 video frame)
Writing library                          : LAME3.98.4

